<svg aria-hidden="true" style="position: absolute; width: 0; height: 0; overflow: hidden;" version="1.1" xmlns="http://www.w3.org/2000/svg" xmlns:xlink="http://www.w3.org/1999/xlink">
<defs>
<symbol id="icon-facebook" viewBox="0 0 32 32">
<title>facebook</title>
<path d="M19 6h5v-6h-5c-3.86 0-7 3.14-7 7v3h-4v6h4v16h6v-16h5l1-6h-6v-3c0-0.542 0.458-1 1-1z"></path>
</symbol>
<symbol id="icon-pinterest" viewBox="0 0 32 32">
<title>pinterest</title>
<path d="M16 2.138c-7.656 0-13.863 6.206-13.863 13.863 0 5.875 3.656 10.887 8.813 12.906-0.119-1.094-0.231-2.781 0.050-3.975 0.25-1.081 1.625-6.887 1.625-6.887s-0.412-0.831-0.412-2.056c0-1.925 1.119-3.369 2.506-3.369 1.181 0 1.756 0.887 1.756 1.95 0 1.188-0.756 2.969-1.15 4.613-0.331 1.381 0.688 2.506 2.050 2.506 2.462 0 4.356-2.6 4.356-6.35 0-3.319-2.387-5.638-5.787-5.638-3.944 0-6.256 2.956-6.256 6.019 0 1.194 0.456 2.469 1.031 3.163 0.113 0.137 0.131 0.256 0.094 0.4-0.106 0.438-0.338 1.381-0.387 1.575-0.063 0.256-0.2 0.306-0.463 0.188-1.731-0.806-2.813-3.337-2.813-5.369 0-4.375 3.175-8.387 9.156-8.387 4.806 0 8.544 3.425 8.544 8.006 0 4.775-3.012 8.625-7.194 8.625-1.406 0-2.725-0.731-3.175-1.594 0 0-0.694 2.644-0.863 3.294-0.313 1.206-1.156 2.712-1.725 3.631 1.3 0.4 2.675 0.619 4.106 0.619 7.656 0 13.863-6.206 13.863-13.863 0-7.662-6.206-13.869-13.863-13.869z"></path>
</symbol>
<symbol id="icon-instagram" viewBox="0 0 20 20">
<title>instagram</title>
<path d="M17 1h-14c-1.1 0-2 0.9-2 2v14c0 1.101 0.9 2 2 2h14c1.1 0 2-0.899 2-2v-14c0-1.1-0.9-2-2-2zM9.984 15.523c3.059 0 5.538-2.481 5.538-5.539 0-0.338-0.043-0.664-0.103-0.984h1.581v7.216c0 0.382-0.31 0.69-0.693 0.69h-12.614c-0.383 0-0.693-0.308-0.693-0.69v-7.216h1.549c-0.061 0.32-0.104 0.646-0.104 0.984 0 3.059 2.481 5.539 5.539 5.539zM6.523 9.984c0-1.912 1.55-3.461 3.462-3.461s3.462 1.549 3.462 3.461-1.551 3.462-3.462 3.462c-1.913 0-3.462-1.55-3.462-3.462zM16.307 6h-1.615c-0.382 0-0.692-0.312-0.692-0.692v-1.617c0-0.382 0.31-0.691 0.691-0.691h1.615c0.384 0 0.694 0.309 0.694 0.691v1.616c0 0.381-0.31 0.693-0.693 0.693z"></path>
</symbol>
<symbol id="icon-google" viewBox="0 0 20 20">
<title>google</title>
<path d="M1.989 5.589c0 1.494 0.499 2.572 1.482 3.205 0.806 0.52 1.74 0.598 2.226 0.598 0.118 0 0.213-0.006 0.279-0.010 0 0-0.154 1.004 0.59 1.996h-0.034c-1.289 0-5.493 0.269-5.493 3.727 0 3.516 3.861 3.695 4.636 3.695 0.061 0 0.097-0.002 0.097-0.002 0.008 0 0.063 0.002 0.158 0.002 0.497 0 1.782-0.062 2.975-0.643 1.548-0.75 2.333-2.059 2.333-3.885 0-1.764-1.196-2.814-2.069-3.582-0.533-0.469-0.994-0.873-0.994-1.266 0-0.4 0.337-0.701 0.762-1.082 0.689-0.615 1.339-1.492 1.339-3.15 0-1.457-0.189-2.436-1.354-3.057 0.121-0.062 0.551-0.107 0.763-0.137 0.631-0.086 1.554-0.184 1.554-0.699v-0.099h-4.599c-0.046 0.002-4.651 0.172-4.651 4.389zM9.413 14.602c0.088 1.406-1.115 2.443-2.922 2.574-1.835 0.135-3.345-0.691-3.433-2.096-0.043-0.676 0.254-1.336 0.835-1.863 0.589-0.533 1.398-0.863 2.278-0.928 0.104-0.006 0.207-0.012 0.31-0.012 1.699 0.001 2.849 0.999 2.932 2.325zM8.212 4.626c0.451 1.588-0.23 3.246-1.316 3.553-0.125 0.035-0.253 0.052-0.384 0.052-0.994 0-1.979-1.006-2.345-2.393-0.204-0.776-0.187-1.458 0.047-2.112 0.229-0.645 0.643-1.078 1.163-1.225 0.125-0.035 0.254-0.053 0.385-0.053 1.2 0 1.972 0.498 2.45 2.178zM16 8v-3h-2v3h-3v2h3v3h2v-3h3v-2h-3z"></path>
</symbol>
<symbol id="icon-rss" viewBox="0 0 32 32">
<title>rss</title>
<path d="M3.407 18.774c-1.88 0-3.407 1.534-3.407 3.402 0 1.879 1.527 3.395 3.407 3.395 1.886 0 3.412-1.516 3.412-3.395 0-1.869-1.526-3.402-3.412-3.402zM0.004 8.698v4.906c3.194 0 6.199 1.25 8.462 3.513 2.26 2.258 3.507 5.276 3.507 8.482h4.928c0-9.321-7.582-16.902-16.897-16.902zM0.010 0v4.909c11.394 0 20.669 9.283 20.669 20.691h4.922c0-14.112-11.482-25.6-25.59-25.6z"></path>
</symbol>
<symbol id="icon-twitter" viewBox="0 0 40 32">
<title>twitter</title>
<path d="M26.686 0.916c3.099-0.055 4.75 1.074 6.325 2.51 1.338-0.114 3.077-0.861 4.101-1.382 0.331-0.18 0.663-0.363 0.995-0.544-0.585 1.58-1.378 2.818-2.597 3.758-0.271 0.207-0.539 0.489-0.879 0.622 0 0.006 0 0.014 0 0.020 1.737-0.017 3.17-0.802 4.53-1.227 0 0.006 0 0.014 0 0.020-0.715 1.135-1.682 2.289-2.714 3.115-0.416 0.331-0.834 0.661-1.25 0.992 0.023 1.839-0.027 3.595-0.37 5.14-1.999 8.983-7.296 15.081-15.678 17.694-3.011 0.937-7.875 1.323-11.325 0.466-1.71-0.424-3.255-0.904-4.704-1.538-0.806-0.352-1.553-0.733-2.266-1.169-0.235-0.142-0.468-0.285-0.702-0.427 0.777 0.023 1.688 0.238 2.557 0.096 0.788-0.126 1.559-0.093 2.286-0.251 1.81-0.398 3.418-0.923 4.802-1.734 0.672-0.393 1.691-0.853 2.168-1.42-0.899 0.015-1.714-0.194-2.382-0.428-2.589-0.914-4.096-2.595-5.077-5.12 0.785 0.087 3.045 0.291 3.573-0.155-0.987-0.055-1.937-0.626-2.616-1.051-2.083-1.303-3.781-3.488-3.768-6.851 0.274 0.13 0.547 0.259 0.82 0.389 0.524 0.221 1.056 0.338 1.679 0.468 0.264 0.055 0.791 0.209 1.094 0.096-0.014 0-0.026 0-0.040 0-0.402-0.468-1.059-0.78-1.464-1.285-1.336-1.659-2.587-4.215-1.797-7.259 0.201-0.773 0.52-1.454 0.859-2.083 0.014 0.006 0.026 0.012 0.040 0.018 0.155 0.326 0.503 0.565 0.722 0.838 0.683 0.846 1.524 1.606 2.382 2.277 2.923 2.286 5.554 3.691 9.781 4.73 1.073 0.265 2.312 0.466 3.593 0.468-0.36-1.047-0.244-2.743 0.038-3.756 0.713-2.551 2.26-4.387 4.53-5.373 0.542-0.235 1.144-0.407 1.777-0.546 0.326-0.038 0.651-0.078 0.977-0.116z"></path>
</symbol>
<symbol id="icon-stumbleupon" viewBox="0 0 30 28">
<title>stumbleupon</title>
<path d="M16.594 11.125v-1.844c0-0.875-0.719-1.594-1.594-1.594s-1.594 0.719-1.594 1.594v9.562c0 3.656-3.031 6.609-6.703 6.609-3.703 0-6.703-3-6.703-6.703v-4.156h5.125v4.094c0 0.891 0.719 1.594 1.594 1.594s1.594-0.703 1.594-1.594v-9.688c0-3.578 3.063-6.453 6.687-6.453 3.641 0 6.687 2.891 6.687 6.5v2.125l-3.047 0.906zM24.875 14.594h5.125v4.156c0 3.703-3 6.703-6.703 6.703-3.687 0-6.703-2.969-6.703-6.641v-4.188l2.047 0.953 3.047-0.906v4.219c0 0.875 0.719 1.578 1.594 1.578s1.594-0.703 1.594-1.578v-4.297z"></path>
</symbol>
</defs>
</svg>
