<svg aria-hidden="true" style="position:absolute;width:0;height:0" xmlns="http://www.w3.org/2000/svg" overflow="hidden"><defs><symbol id="icon-facebook" viewBox="0 0 32 32"><path d="M19 6h5V0h-5c-3.86 0-7 3.14-7 7v3H8v6h4v16h6V16h5l1-6h-6V7c0-.542.458-1 1-1z"/></symbol><symbol id="icon-pinterest" viewBox="0 0 32 32"><path d="M16 2.138c-7.656 0-13.863 6.206-13.863 13.863 0 5.875 3.656 10.887 8.813 12.906-.119-1.094-.231-2.781.05-3.975.25-1.081 1.625-6.887 1.625-6.887s-.412-.831-.412-2.056c0-1.925 1.119-3.369 2.506-3.369 1.181 0 1.756.887 1.756 1.95 0 1.188-.756 2.969-1.15 4.613-.331 1.381.688 2.506 2.05 2.506 2.462 0 4.356-2.6 4.356-6.35 0-3.319-2.387-5.638-5.787-5.638-3.944 0-6.256 2.956-6.256 6.019 0 1.194.456 2.469 1.031 3.163a.408.408 0 01.094.4c-.106.438-.338 1.381-.387 1.575-.063.256-.2.306-.463.188-1.731-.806-2.813-3.337-2.813-5.369 0-4.375 3.175-8.387 9.156-8.387 4.806 0 8.544 3.425 8.544 8.006 0 4.775-3.012 8.625-7.194 8.625-1.406 0-2.725-.731-3.175-1.594 0 0-.694 2.644-.863 3.294-.313 1.206-1.156 2.712-1.725 3.631 1.3.4 2.675.619 4.106.619 7.656 0 13.863-6.206 13.863-13.863 0-7.662-6.206-13.869-13.863-13.869z"/></symbol><symbol id="icon-instagram" viewBox="0 0 20 20"><path d="M17 1H3c-1.1 0-2 .9-2 2v14c0 1.101.9 2 2 2h14c1.1 0 2-.899 2-2V3c0-1.1-.9-2-2-2zM9.984 15.523a5.539 5.539 0 005.538-5.539c0-.338-.043-.664-.103-.984H17v7.216a.69.69 0 01-.693.69H3.693a.69.69 0 01-.693-.69V9h1.549c-.061.32-.104.646-.104.984a5.54 5.54 0 005.539 5.539zM6.523 9.984a3.461 3.461 0 013.462-3.461 3.461 3.461 0 110 6.923 3.461 3.461 0 01-3.462-3.462zM16.307 6h-1.615A.694.694 0 0114 5.308V3.691c0-.382.31-.691.691-.691h1.615c.384 0 .694.309.694.691v1.616c0 .381-.31.693-.693.693z"/></symbol><symbol id="icon-google" viewBox="0 0 20 20"><path d="M1.989 5.589c0 1.494.499 2.572 1.482 3.205.806.52 1.74.598 2.226.598.118 0 .213-.006.279-.01 0 0-.154 1.004.59 1.996h-.034c-1.289 0-5.493.269-5.493 3.727 0 3.516 3.861 3.695 4.636 3.695.061 0 .097-.002.097-.002.008 0 .063.002.158.002.497 0 1.782-.062 2.975-.643 1.548-.75 2.333-2.059 2.333-3.885 0-1.764-1.196-2.814-2.069-3.582-.533-.469-.994-.873-.994-1.266 0-.4.337-.701.762-1.082.689-.615 1.339-1.492 1.339-3.15 0-1.457-.189-2.436-1.354-3.057.121-.062.551-.107.763-.137.631-.086 1.554-.184 1.554-.699V1.2H6.64c-.046.002-4.651.172-4.651 4.389zm7.424 9.013c.088 1.406-1.115 2.443-2.922 2.574-1.835.135-3.345-.691-3.433-2.096-.043-.676.254-1.336.835-1.863.589-.533 1.398-.863 2.278-.928.104-.006.207-.012.31-.012 1.699.001 2.849.999 2.932 2.325zM8.212 4.626c.451 1.588-.23 3.246-1.316 3.553a1.417 1.417 0 01-.384.052c-.994 0-1.979-1.006-2.345-2.393-.204-.776-.187-1.458.047-2.112.229-.645.643-1.078 1.163-1.225.125-.035.254-.053.385-.053 1.2 0 1.972.498 2.45 2.178zM16 8V5h-2v3h-3v2h3v3h2v-3h3V8h-3z"/></symbol><symbol id="icon-rss" viewBox="0 0 32 32"><path d="M3.407 18.774A3.413 3.413 0 000 22.176a3.4 3.4 0 003.407 3.395 3.4 3.4 0 003.412-3.395 3.412 3.412 0 00-3.412-3.402zM.004 8.698v4.906c3.194 0 6.199 1.25 8.462 3.513a11.918 11.918 0 013.507 8.482h4.928c0-9.321-7.582-16.902-16.897-16.902zM.01 0v4.909c11.394 0 20.669 9.283 20.669 20.691h4.922C25.601 11.488 14.119 0 .011 0z"/></symbol><symbol id="icon-twitter" viewBox="0 0 40 32"><path d="M26.686.916c3.099-.055 4.75 1.074 6.325 2.51 1.338-.114 3.077-.861 4.101-1.382l.995-.544c-.585 1.58-1.378 2.818-2.597 3.758-.271.207-.539.489-.879.622v.02c1.737-.017 3.17-.802 4.53-1.227v.02c-.715 1.135-1.682 2.289-2.714 3.115l-1.25.992c.023 1.839-.027 3.595-.37 5.14-1.999 8.983-7.296 15.081-15.678 17.694-3.011.937-7.875 1.323-11.325.466-1.71-.424-3.255-.904-4.704-1.538a18.495 18.495 0 01-2.266-1.169l-.702-.427c.777.023 1.688.238 2.557.096.788-.126 1.559-.093 2.286-.251 1.81-.398 3.418-.923 4.802-1.734.672-.393 1.691-.853 2.168-1.42-.899.015-1.714-.194-2.382-.428-2.589-.914-4.096-2.595-5.077-5.12.785.087 3.045.291 3.573-.155-.987-.055-1.937-.626-2.616-1.051-2.083-1.303-3.781-3.488-3.768-6.851l.82.389c.524.221 1.056.338 1.679.468.264.055.791.209 1.094.096h-.04c-.402-.468-1.059-.78-1.464-1.285-1.336-1.659-2.587-4.215-1.797-7.259.201-.773.52-1.454.859-2.083l.04.018c.155.326.503.565.722.838.683.846 1.524 1.606 2.382 2.277 2.923 2.286 5.554 3.691 9.781 4.73 1.073.265 2.312.466 3.593.468-.36-1.047-.244-2.743.038-3.756.713-2.551 2.26-4.387 4.53-5.373.542-.235 1.144-.407 1.777-.546l.977-.116z"/></symbol><symbol id="icon-stumbleupon" viewBox="0 0 30 28"><path d="M16.594 11.125V9.281c0-.875-.719-1.594-1.594-1.594s-1.594.719-1.594 1.594v9.562c0 3.656-3.031 6.609-6.703 6.609C3 25.452 0 22.452 0 18.749v-4.156h5.125v4.094c0 .891.719 1.594 1.594 1.594s1.594-.703 1.594-1.594V8.999c0-3.578 3.063-6.453 6.687-6.453 3.641 0 6.687 2.891 6.687 6.5v2.125l-3.047.906zm8.281 3.469H30v4.156c0 3.703-3 6.703-6.703 6.703-3.687 0-6.703-2.969-6.703-6.641v-4.188l2.047.953 3.047-.906v4.219c0 .875.719 1.578 1.594 1.578s1.594-.703 1.594-1.578v-4.297z"/></symbol></defs></svg>